<?xml version="1.0" encoding="utf-8"?>
<!-- Generator: Adobe Illustrator 23.0.6, SVG Export Plug-In . SVG Version: 6.00 Build 0)  -->
<svg version="1.1" id="Capa_1" xmlns="http://www.w3.org/2000/svg" xmlns:xlink="http://www.w3.org/1999/xlink" x="0px" y="0px"
	 viewBox="0 0 1920 1080" style="enable-background:new 0 0 1920 1080;" xml:space="preserve">
<style type="text/css">
	.st0{fill:#010101;}
	.st1{fill:#00A632;}
</style>
<title>LOGO VOZPOPULI VECTOR OK</title>
<g id="I">
	<rect x="1748" y="367" width="45" height="45"/>
</g>
<g id="ACENTO">
	<polygon points="122,487 164,603 207,487 183,487 183,451 277,451 277,487 252,487 188,655 140,655 76,487 51,487 51,451 146,451 
		146,487 	"/>
	<path class="st0" d="M381.5,446c-61,0-110.5,48.1-110.5,107.5S320.5,661,381.5,661S492,612.9,492,553.5S442.5,446,381.5,446z
		 M381,621c-35.9,0-65-30.2-65-67.5s29.1-67.5,65-67.5s65,30.2,65,67.5S416.9,621,381,621z"/>
	<polygon points="503,451 503,519 543,519 543,487 617,487 501,626 501,655 676,655 676,588 637,588 637,620 559,620 674,480 
		674,451 	"/>
	<path d="M911,548c0,0,5-102-88-102c-50,0-66,30-66,30s2-25-24-25h-50v36h26c7,0,6.5,6.5,6.5,6.5V698H684v37h107v-37h-32v-65
		c0,0,15,27,60,27C920,660,911,548,911,548z M813,622c-29.8,0-54-30.4-54-68s24.2-68,54-68s54,30.4,54,68S842.8,622,813,622z"/>
	<path class="st0" d="M1029.5,446c-61,0-110.5,48.1-110.5,107.5S968.5,661,1029.5,661S1140,612.9,1140,553.5S1090.5,446,1029.5,446z
		 M1029,621c-35.9,0-65-30.2-65-67.5s29.1-67.5,65-67.5s65,30.2,65,67.5S1064.9,621,1029,621z"/>
	<path d="M1368,548c0,0,5-102-88-102c-50,0-66,30-66,30s2-25-24-25h-50v36h26c8,0,6.5,6.5,6.5,6.5V698H1141v37h107v-37h-32v-65
		c0,0,15,27,60,27C1377,660,1368,548,1368,548z M1270,622c-29.8,0-54-30.4-54-68s24.2-68,54-68s54,30.4,54,68S1299.8,622,1270,622z"
		/>
	<path d="M1541,487v61c1,38-27,71-57,72c-40,0-38-40-38-40V451h-78v36h33v102c0,0-4,71,67,71c55,0,74-37,74-37v13c0,22,25,20,25,20
		h48v-36h-26c-4,0-4-5-4-5V451h-77v36"/>
	<path d="M1678,373h-77v36h32v194c0,57,53.5,53.5,53.5,53.5l23.5-0.5v-38h-21c-13,0-11-21-11-21V373"/>
	<polygon points="1715,451 1715,487 1748,487 1748,620 1717,620 1717,656 1823,656 1823,620 1793,620 1793,451 	"/>
	<path class="st1" d="M952,431c-1,0-3-3,2-5c-5.1,2.1,138-56,138-56s7-3,9-3c3,0,2.5,3,2.5,3v53.5c0,7.5-7.5,7.5-7.5,7.5H952z"/>
</g>
</svg>
